#!OML:ASF E:/inclinewalkrobotboard/Project1/Captureday1/Session1/subject1.ASF
:FULLY-SPECIFIED
:DEGREES
213
root 0 0 0 -2.7592172392473175 -0.20451199841610723 0.9180060941106716
lowerback 10.379719920575779 -1.049543774961252 -2.6984315299894237
upperback 0.5818980839321832 -1.6001204641732891 1.6604559583218492
thorax -5.116561455897903 -0.7163560797010435 3.474232449901954
lowerneck -16.852439476697306 -2.633151846130642 -2.2413493273045617
upperneck 19.539783696764893 -3.1968765195528324 0.4971177177380941
head 8.936391885777748 -1.606453942100348 0.1266076945121486
rclavicle -4.0692111255130447E-16 -3.4289450219635483E-16
rhumerus -29.56145021208141 -18.461403441809644 -78.14017252029342
rradius 26.24518384798443
rwrist 4.301208807162599
rhand -17.603206831547695 22.82467770244401
rfingers 7.1250200000000286
rthumb 8.641099651608474 -6.9990110263672065
lclavicle -7.086413545715781E-16 -1.8955073689197605E-16
lhumerus -29.093054228005926 -2.847960974543632 82.20501933354718
lradius 34.88656401883561
lwrist 5.922773346558025
lhand -24.855287154707735 24.343980137995782
lfingers 7.123322213081145
lthumb 1.6232588564985182 53.72460355745631
rfemur -11.336352636961866 7.875007946143192 25.708959963547148
rtibia 26.3378439059469
rfoot -13.861607695869948 -8.465871871788037
rtoes -1.7258232769912136
lfemur 4.531116897897595 -3.154349001907466 -26.309985245905573
ltibia 20.49796315277522
lfoot -15.680766874388263 -0.029628324763610436
ltoes -4.689468198201873
214
root 0 0 0 -2.7687663524488118 -0.19405955448353396 1.0660362234005374
lowerback 10.366526755992775 -1.1063477291980766 -2.860131910641571
upperback 0.594016981743601 -1.6946213595592758 1.648679259023936
thorax -5.096172703160216 -0.7601871787208208 3.5669733964141974
lowerneck -16.790980499847578 -2.6231650586089756 -2.2788566242099915
upperneck 19.517766761419935 -3.183910945455168 0.5306583472466864
head 8.91579206807563 -1.600711422421734 0.1465141738125384
rclavicle -4.257662514687735E-16 -3.3381824563246005E-16
rhumerus -29.30494352434227 -18.216087372897654 -78.08313992781139
rradius 26.48409646045135
rwrist 4.354347462454921
rhand -17.6456062321083 22.636447333820296
rfingers 7.125020000000026
rthumb 8.60221742499079 -7.183116169636424
lclavicle -7.36601437230982E-16 -1.8980542080494515E-16
lhumerus -28.830664247742686 -3.152809997901265 82.18707644130046
lradius 35.46147063440504
lwrist 5.971761731897647
lhand -24.67437663179568 24.442391106888017
lfingers 7.123147344677106
lthumb 1.795719837362956 53.7712334253972
rfemur -7.449173507833358 9.62300782892716 27.504599741137113
rtibia 17.31130430395088
rfoot -18.147940617677133 -8.949149789795754
rtoes -4.061841897521611
lfemur 4.426792834768156 -2.9606749117336366 -26.09127140008095
ltibia 22.087279910869345
lfoot -14.842270930077811 -0.7453353487340202
ltoes -5.021616516418416
215
root 0 0 0 -2.780128918013085 -0.20502331726741296 1.1850686872533784
lowerback 10.359391659833545 -1.1480641031023775 -2.988982217024942
upperback 0.6070030794727383 -1.7653173866004015 1.6358106834167376
thorax -5.078132160586701 -0.7928866498877816 3.6357602576554617
lowerneck -16.727514091084018 -2.6153969274832254 -2.3132098444412854
upperneck 19.48799387607159 -3.1736850312972167 0.5645476045706523
head 8.894501308128234 -1.5968180524576003 0.1657054779435594
rclavicle -4.356851907704032E-16 -3.283083803204204E-16
rhumerus -29.15424348051845 -18.069285420722835 -78.0510066664148
rradius 26.62633458038345
rwrist 4.386401563912819
rhand -17.66987498282436 22.524636740846038
rfingers 7.125020000000025
rthumb 8.579639987597021 -7.2929890875900405
lclavicle -7.466271188166319E-16 -1.9611078500887173E-16
lhumerus -28.77317374571179 -3.226998731617499 82.18569753076211
lradius 35.59581958591884
lwrist 5.982648152735223
lhand -24.629014242057792 24.464322071378056
lfingers 7.123083742350998
lthumb 1.840517531289393 53.781236645318444
rfemur -7.608247034252715 9.19375499366959 27.552312338772825
rtibia 19.527926467416282
rfoot -17.122254073826646 -8.597063310936466
rtoes -3.136878215736286
lfemur 4.301460264430128 -2.7227319258223854 -25.84918388051453
ltibia 23.985286991730497
lfoot -13.852160872537691 -1.5945118934767653
ltoes -5.378225552017349
216
root 0 0 0 -2.78162844192137 -0.15202921293842486 1.20844272090928
lowerback 10.359064050346182 -1.163195454689788 -3.0175797575080407
upperback 0.6017436198421144 -1.7882706016266692 1.6409699545059242
thorax -5.083795815487973 -0.8034357384825281 3.66037103822644
lowerneck -16.754075809476277 -2.6134805801761836 -2.305909677137648
upperneck 19.508887494477335 -3.16979853165963 0.5490743302303525
head 8.904106351495445 -1.594736591043687 0.15962265385834007
rclavicle -4.42734432274652E-16 -3.208878750395156E-16
rhumerus -29.034323236925392 -17.961450740797893 -78.02408114671744
rradius 26.735788689565542
rwrist 4.411670745260548
rhand -17.68971073157138 22.438243563540905
rfingers 7.125020000000023
rthumb 8.561269835566268 -7.378056282739447
lclavicle -7.526008640884398E-16 -1.9525210472375845E-16
lhumerus -28.79344296361273 -3.208120402235817 82.18804733715594
lradius 35.557703424006
lwrist 5.97894246294149
lhand -24.63935820157087 24.456682838510535
lfingers 7.123075246421349
lthumb 1.8309673939271853 53.77660168920739
rfemur -7.97451808831233 8.391183664946135 27.625007977347593
rtibia 23.566514228418733
rfoot -15.269960323379223 -7.977848717160374
rtoes -1.4488607531289102
lfemur 3.2196239819556336 -2.3733013325731283 -25.119708795224398
ltibia 26.926049444028358
lfoot -12.179158201922515 -2.6867929705123466
ltoes -5.688184406306459
217
root 0 0 0 -2.768358769522341 -0.047843750655916395 1.076600733795615
lowerback 10.366701478006576 -1.1294087445600995 -2.8807045221061482
upperback 0.5740770190139708 -1.7260703110745594 1.6680322861565786
thorax -5.1181262543832045 -0.7745266533534536 3.6026924837533536
lowerneck -16.88812703308946 -2.6199433962643943 -2.2446978734593346
upperneck 19.588187242891504 -3.1756700242214064 0.4734783980239614
head 8.95067508133481 -1.5960239193528183 0.12164136451795304
rclavicle -4.48958270677189E-16 -3.1316524732184443E-16
rhumerus -28.930962017697386 -17.87356370444715 -78.00146032928538
rradius 26.82668122766092
rwrist 4.4323495715764105
rhand -17.707232290581544 22.366206405462155
rfingers 7.125020000000022
rthumb 8.545394120903747 -7.449126549273881
lclavicle -7.538830082140727E-16 -1.912702472158886E-16
lhumerus -28.846855421617544 -3.1435042619316214 82.19098131266092
lradius 35.443174319816876
lwrist 5.971236141790618
lhand -24.67789142358459 24.437781883290285
lfingers 7.123102968013556
lthumb 1.7947472644051263 53.76552138293266
rfemur -7.897079820408283 7.595673347774541 27.981161051008016
rtibia 27.48041088299791
rfoot -13.510687639038416 -7.250685869609322
rtoes 0.39380379414717037
lfemur 0.7934120844365165 -1.8858618160441127 -23.708762288699663
ltibia 31.168821996511596
lfoot -9.685996976122272 -3.998694535539123
ltoes -5.930029031300477
218
root 0 0 0 -2.739739608979065 0.05821525321274024 0.7669383432108778
lowerback 10.381499402867256 -1.0337130322880026 -2.5512047476898365
upperback 0.5291688322302535 -1.558563805826776 1.7123839159914396
thorax -5.174717804202298 -0.6968208774724278 3.4398013653531336
lowerneck -17.102055123463725 -2.635473791045585 -2.1372340868447877
upperneck 19.709536110797664 -3.192861719531616 0.35085143485584513
head 9.025218579925724 -1.6017967774091493 0.05718157534649171
rclavicle -4.565620113858027E-16 -3.0735953402281474E-16
rhumerus -28.829638888965984 -17.787176991195928 -77.98066841568375
rradius 26.91484203360735
rwrist 4.451580724330786
rhand -17.724296221486366 22.296292961756794
rfingers 7.1250200000000214
rthumb 8.529953049247105 -7.518090091241955
lclavicle -7.537411147037244E-16 -1.8931420172504962E-16
lhumerus -28.903698276811316 -3.072905882491046 82.19408601036469
lradius 35.321779114693435
lwrist 5.964156464403814
lhand -24.720620521472718 24.41807733011473
lfingers 7.123140246181339
lthumb 1.7549881653787374 53.75290699932721
rfemur -7.284315631237025 6.999733939628197 28.59893377527371
rtibia 30.343788996735327
rfoot -12.270232447663037 -6.558600070323831
rtoes 1.9994893788411696
lfemur -3.5131208562658944 -1.1744879483083523 -21.31903886542827
ltibia 37.417004795599155
lfoot -6.037657349663969 -5.632585454790311
ltoes -6.139147130826988
